<?xml version="1.0" encoding="utf-8"?>
<!-- Generator: Adobe Illustrator 16.0.3, SVG Export Plug-In . SVG Version: 6.00 Build 0)  -->
<!DOCTYPE svg PUBLIC "-//W3C//DTD SVG 1.1//EN" "http://www.w3.org/Graphics/SVG/1.1/DTD/svg11.dtd">
<svg version="1.1" id="Layer_1" xmlns="http://www.w3.org/2000/svg" xmlns:xlink="http://www.w3.org/1999/xlink" x="0px" y="0px"
	 width="447.333px" height="393.667px" viewBox="0 0 447.333 393.667" enable-background="new 0 0 447.333 393.667"
	 xml:space="preserve">
<text transform="matrix(1 0.0019 -0.0019 1 298.2935 382.7427)" fill="#FFFFFF" font-family="'Bariol-Light'" font-size="22.6147">Vitamin C</text>
<text transform="matrix(1 0 0 1 251.6577 208.5049)" font-family="'Bariol-Light'" font-size="22.6147">Iron</text>
<text transform="matrix(0.6828 -0.7306 0.7306 0.6828 189.1465 172.5103)" fill="#FFFFFF" font-family="'Bariol-Light'" font-size="22.6147">Magnesium</text>
<text transform="matrix(0.7159 0.6982 -0.6982 0.7159 264.6914 28.7095)" fill="#FFFFFF" font-family="'Bariol-Light'" font-size="22.6146">Calcium</text>
<text transform="matrix(0.2187 -0.9758 0.9758 0.2187 157.6909 257.481)" fill="#FFFFFF" font-family="'Bariol-Light'" font-size="22.6145">Zinc</text>
<g id="orange_2_">
	<circle fill="#F49D47" cx="306.379" cy="322.674" r="26.916"/>
	<path fill="#736357" d="M303.935,301.972c0,0,3.776-12.197-8.561-18.567c-0.462-0.24-1.623,0.946-2.128,0.718
		C293.246,284.123,302.955,286.995,303.935,301.972z"/>
	<path fill="#8CC63F" d="M304.285,301.698c0,0-0.325-28.089,22.171-17.659C349.096,294.535,320.648,288.727,304.285,301.698z"/>
	<g>
		<path fill="#C7FF74" d="M307.222,296.029c0,0,0.147-0.271,0.404-0.746c0.263-0.468,0.663-1.146,1.218-1.894
			c0.541-0.762,1.251-1.597,2.097-2.412c0.426-0.405,0.878-0.812,1.37-1.188c0.477-0.396,1.009-0.738,1.537-1.083
			c0.539-0.332,1.086-0.651,1.658-0.912c0.554-0.295,1.151-0.475,1.714-0.678c0.586-0.128,1.143-0.3,1.697-0.331
			c0.274-0.026,0.539-0.064,0.796-0.077c0.258,0.003,0.508,0.006,0.748,0.009c0.478-0.015,0.912,0.082,1.293,0.131
			c0.383,0.041,0.709,0.12,0.973,0.21c0.531,0.152,0.823,0.257,0.823,0.257l-0.021,0.098c0,0-0.317,0.009-0.852-0.006
			c-0.533-0.017-1.297,0-2.187,0.11c-0.894,0.083-1.913,0.299-2.982,0.599c-0.529,0.167-1.09,0.312-1.631,0.542
			c-0.554,0.202-1.093,0.463-1.628,0.739c-0.521,0.297-1.051,0.593-1.53,0.945c-0.495,0.333-0.954,0.698-1.39,1.065
			c-0.86,0.744-1.622,1.498-2.212,2.199c-0.606,0.691-1.044,1.313-1.348,1.762c-0.294,0.453-0.463,0.711-0.463,0.711
			L307.222,296.029z"/>
	</g>
	<path fill="#F2B266" d="M328.625,315.386c0.711,2.759,1.869,4.944-0.621,5.587c-2.491,0.643-2.828-1.657-3.54-4.417
		c-0.708-2.759-4.691-6.954-2.203-7.6C324.752,308.317,327.914,312.627,328.625,315.386z"/>
</g>
<g id="banana_2_">
	<path fill="#FCEE6B" d="M72.029,80.796l5.389,9.862c0,0,98.037-93.743,181.583-15.218c0.228,0.418,0.531,0.802,0.874,1.161
		l15.727,18.364c2.422,2.459,6.095-0.094,8.551-2.488c1.417-1.401,1.936-4.138,1.667-6.694c-0.197-1.882-0.83-3.667-1.854-4.704
		l-15.152-13.217c-0.699-0.705-1.539-1.217-2.403-1.52l0.065-1.648C266.477,64.694,208.03-80.386,72.029,80.796z"/>
	<path fill="#998675" d="M71.4,83.314c-1.478,1.295-1.897,3.23-0.935,4.341l3.491,4.014c0.959,1.111,2.938,0.971,4.42-0.315l0,0
		c1.482-1.286,1.895-3.227,0.934-4.332l-0.634-1.71C77.712,84.201,71.26,78.271,71.4,83.314L71.4,83.314z"/>
	<path fill="#998675" d="M288.211,83.68c-1.439-1.267-3.617-1.13-4.884,0.303l-4.257,1.701c-1.264,1.423-3.162,9.042-1.732,10.303
		l0,0c1.436,1.264,3.62,1.124,4.881-0.3l6.292-7.131C289.775,87.122,289.641,84.938,288.211,83.68L288.211,83.68z"/>
</g>
<g id="bread_1_">
	<path fill="#736357" d="M279.463,290.368c0,7.943-3.567,15.062-9.182,19.822v58.229c0,10.131-8.233,18.367-18.367,18.367h-78.571
		c-10.131,0-18.364-8.236-18.364-18.367v-58.672c-5.324-4.759-8.661-11.679-8.661-19.378c0-14.369,11.647-26.017,26.017-26.017
		c6.917,0,13.224,2.709,17.874,7.131h45.361c4.653-4.422,10.958-7.131,17.877-7.131
		C267.815,264.352,279.463,275.999,279.463,290.368z"/>
	<path fill="#CEB093" d="M270.125,297.035c0,7.375-3.314,13.982-8.526,18.405v54.065c0,9.41-7.644,17.054-17.053,17.054h-72.954
		c-9.407,0-17.053-7.644-17.053-17.054v-54.48c-4.943-4.419-8.043-10.839-8.043-17.99c0-13.342,10.814-24.153,24.16-24.153
		c6.42,0,12.274,2.516,16.594,6.62h42.121c4.316-4.104,10.174-6.62,16.594-6.62C259.311,272.881,270.125,283.692,270.125,297.035z"
		/>
	<g>
		<path fill="#AD6BAF" d="M184.916,316.925c1.895,6.632,1.364,3.515-1.895,10.421c-6.036,12.79,4.207,20.196,11.367,26.525
			c17.534,15.496,22.128-5.371,35.526-16.579c7.359-6.154,13.739-20.368-1.891-30.314c-6.979-4.444-15.131,3.314-25.109,0
			c0,0-18.944-12.79-19.893,1.42L184.916,316.925z"/>
	</g>
	<g>
		<path fill="#C779E8" d="M224.218,314.213c-1.467,4.032,1.386,6.124,0.989,8.495c-0.79,5.727-4.741,8.689-8.495,12.837
			c-1.376,1.386-3.948,6.913-2.172,8.892c0.986,0.982,2.378-0.696,3.558-2.176c2.038-2.556,5.134-5.33,7.309-7.703
			c2.172-2.175,4.938-4.148,6.323-7.109c2.366-5.141-1.236-16.495-5.337-15.409L224.218,314.213z"/>
	</g>
</g>
<g id="peapod_1_">
	<path fill="#508941" d="M134.77,298.018c0,0-43.884,33.598-18.32,86.012C129.155,410.081,158.237,311.938,134.77,298.018z"/>
	<path fill="#8CC63F" d="M141.555,313.408c0,0-2.234-15.558-11.866-8.882c-9.625,6.672-8.021,16.766-6.158,20.196
		C127.598,332.218,139.748,328.357,141.555,313.408z"/>
	<path fill="#8CC63F" d="M135.029,338.451c0,0-4.142-15.165-12.871-7.353c-8.729,7.818-5.883,17.64-3.611,20.814
		C123.51,358.846,135.092,353.509,135.029,338.451z"/>
	<path fill="#8CC63F" d="M130.623,364.592c0,0-5.262-14.81-13.38-6.364c-8.121,8.442-4.551,18.021-2.047,21.021
		C120.663,385.796,131.812,379.604,130.623,364.592z"/>
	<path fill="#B9EF84" d="M139.548,312.343c0.031,0.912,0.247,1.676-0.574,1.704c-0.824,0.028-0.771-0.711-0.805-1.623
		c-0.031-0.911-0.989-2.497-0.168-2.525C138.824,309.869,139.517,311.432,139.548,312.343z"/>
	<path fill="#B9EF84" d="M133.712,337.483c0.034,0.911,0.246,1.67-0.575,1.704c-0.824,0.028-0.771-0.715-0.805-1.623
		c-0.031-0.914-0.986-2.494-0.165-2.524C132.988,335.008,133.684,336.572,133.712,337.483z"/>
	<path fill="#B9EF84" d="M129.667,365.769c0.031,0.914,0.247,1.673-0.578,1.704c-0.821,0.024-0.768-0.712-0.802-1.62
		c-0.031-0.914-0.989-2.497-0.165-2.528C128.943,363.297,129.636,364.861,129.667,365.769z"/>
</g>
<g id="egg_1_">
	<g>
		<path fill="#FFFFFF" d="M129.155,81.326c-3.367,5.39-9.428,15.496-6.061,22.231c2.02,4.713,14.819,9.432,18.864,14.145
			c13.47,16.167,39.74,20.883,56.581,4.042c12.122-11.451,18.186-41.088,1.345-51.194c-12.796-8.083-28.963,2.022-42.437,0.674
			c-10.777-0.674-20.205-6.061-26.27,6.735L129.155,81.326z"/>
	</g>
	<path fill="#FBB03B" d="M189.11,99.547c0,10.118-8.202,18.32-18.323,18.32c-10.115,0-18.317-8.202-18.317-18.32
		c0-10.115,8.202-18.317,18.317-18.317C180.908,81.229,189.11,89.432,189.11,99.547z"/>
	<ellipse fill="#FFC969" cx="165.501" cy="101.535" rx="6.153" ry="6.87"/>
</g>
<g id="steak_1_">
	<path fill="#F2A197" d="M215.661,179.61c0,0-47.489,12.169-35.346,60.959c7.855,31.554,59.602,8.483,76.687,12.619
		c18.126,4.385,32.998,16.769,43.407,15.605c23.789-2.663,26.282-38.473,0.484-47.926c-33.62-12.319-18.966-38.885-40.208-52.368
		C239.446,155.023,219.908,175.893,215.661,179.61z"/>
	<path fill="#FFFFFF" d="M214.175,166.318c0,0-40.661,33.051-35.345,60.962c5.312,27.908,60.16,8.62,76.686,12.615
		c16.526,3.998,42.287,18.657,52.389,17.527c10.106-1.13,26.011-19.453-8.499-49.845c-26.872-23.667-18.966-38.888-40.208-52.368
		C237.957,141.733,218.422,162.604,214.175,166.318z"/>
	<path fill="#C84933" d="M218.232,173.328c0,0-30.932,25.967-30.133,51.974c0.74,24.212,49.262,2.965,63.354,6.376
		c14.091,3.408,44.15,19.609,52.767,18.645c8.617-0.961,14.416-17.253-15.006-43.164c-22.912-20.181-16.001-31.641-34.109-43.129
		C236.993,152.535,221.853,170.163,218.232,173.328z"/>
	<path fill="#FFFFFF" d="M215.18,200.405c0,0-11.95,20.48,11.254,9.151c13.904-6.788,10.846-17.468,2.538-16.538
		C215.979,194.472,215.18,200.405,215.18,200.405z"/>
	<path fill="#FFD8BF" d="M217.555,201.139c0,0-8.005,13.732,7.553,6.136c9.325-4.551,7.272-11.716,1.698-11.092
		C218.095,197.156,217.555,201.139,217.555,201.139z"/>
	<path fill="#FFFFFF" d="M232.295,219.434c0,0,21.151-7.94,23.052-28.869c0.462-5.056,0.942,5.599-0.699,16.392
		c-1.545,10.149,23.295,10.059,35.389,22.349C305.04,244.552,264.87,204.684,232.295,219.434z"/>
</g>
<g id="cheese_1_">
	<polygon fill="#FCCA58" points="429.306,212.786 356.071,190.003 356.003,146.443 429.237,169.229 	"/>
	<polygon fill="#FFD685" points="355.95,146.231 410.618,139.739 428.66,169.011 	"/>
	<path fill="#FCB958" d="M363.971,160.619c-0.081,5.159-0.069,14.141,4.417,10.543C372.872,167.563,363.971,160.619,363.971,160.619
		z"/>
	<path fill="#FCB958" d="M422.693,195.019c0.702-7.384,1.704-20.255-5.131-15.605C410.723,184.061,422.693,195.019,422.693,195.019z
		"/>
	<path fill="#FCB958" d="M396.23,178.439c0,0-4.37-8.948,7.078-8.966c11.451-0.019,0.013,6.261,4.497,4.472
		C412.293,172.154,401.71,181.102,396.23,178.439z"/>
	<path fill="#FCB958" d="M393.739,191.988c0,0-2.253-4.606,3.643-4.616c5.898-0.009,0.006,3.224,2.318,2.303
		C402.009,188.751,396.557,193.358,393.739,191.988z"/>
	<path fill="#FCB958" d="M381.005,166.811c0,0-2.25-4.604,3.642-4.616c5.899-0.006,0.01,3.224,2.319,2.303
		C389.279,163.578,383.83,168.181,381.005,166.811z"/>
	<path fill="#FCB958" d="M366.814,174.947c0,0-6.279,7.222,0.019,8.433c6.292,1.205,5.986-6.76,9.744,4.85
		c3.758,11.613,4.99-5.166,3.461-6.657C378.508,180.084,366.814,174.947,366.814,174.947z"/>
</g>
<g id="pepper_1_">
	<g>
		<path fill="#DE6400" d="M48.55,94.978c0,0-21.554,19.582-32.333,41.101c-6.323,12.631-25.411,65.978,9.881,95.687
			c4.904,4.129-3.145-24.25,3.143-32.237c0,0,20.208-22.54,52.539-21.422c32.333,1.12,26.497-8.312,26.497-8.312
			s-22.003-21.625-29.191-29.674C71.901,132.074,79.176,102.24,48.55,94.978z"/>
		<path fill="#5D6526" d="M50.488,91.183c0,0-4.446,6.18,2.695,9.25c4.127,1.776,10.186,6.954,11.381,11.045
			c1.194,4.091,0.434,10.724,2.693,12.306c9.225,6.46,8.379,19.275,8.379,19.275c10.637-1.108,13.474,13.508,13.474,13.508
			l10.29,5.421c0.037-3.626,10.178,20.536,10.184,14.042c0.022-21.516-13.276-31.31-21.388-44.612
			C78.779,115.979,60.121,94.978,50.488,91.183z"/>
		<path fill="#5D7426" d="M86.859,128.042c0,0,27.974,3.961,33.9,10.73c5.927,6.773,25.446,12.135,41.285,10.577
			c0,0,19.878-1.557,17.634-3.804c-2.244-2.244,4.569,7.284,0.175,7.949c-15.699,2.378-31.098,6.866-43.285,4.176
			c-21.045-4.644-38.984-10.93-41.316-12.125C81.629,138.569,86.859,128.042,86.859,128.042z"/>
	</g>
	<g>
		<path fill="#EF6F1D" d="M22.945,136.612c-6.6,12.203-5.974,9.707-7.517,17.762c-1.598,6.922-5.033,25.833-2.798,32.296
			c7.186-4.114,9.655-19.125,12.883-26.922c3.65-9.997,4.824-17.762,13.098-24.684c1.662-1.511,6.855-6.504,6.34-9.07
			c-0.425-4.469-9.515-4.232-11.904-2.394c-11.323,8.714-3.943,3.764-8.742,11.17L22.945,136.612z"/>
	</g>
</g>
<g id="cucumber_1_">
	<path fill="#2A4F30" d="M288.146,109.138c0,0-28.888,4.326-12.219,39.912c16.663,35.583,25.586,50.432,35.941,58.681
		c10.353,8.246,16.357,18.917,30.398,10.858c14.042-8.055,7.734-11.688,7.272-22.958
		C349.077,184.357,301.054,101.897,288.146,109.138z"/>
	<path fill="#365937" d="M280.153,132.199c0,0,2.425,19.971,8.62,27.119c6.189,7.141,3.274,8.548,6.61,9.013
		c3.333,0.465,8.608,11.863,8.608,11.863s6.192,4.728,11.875,12.318c5.687,7.584,9.091,18.941,12.078,20.265l-11.102-27.271
		c0,0-13.058-7.531-12.259-11.654c0.805-4.123-8.401-10.783-8.401-10.783l-6.71-8.779L280.153,132.199z"/>
	<path fill="#355937" d="M314.044,177.479c0,0-3.002-3.23-5.59-10.839c-2.581-7.609-5.97-9.866-7.69-15.312
		c-0.896-2.84-9.744-11.985-9.744-11.985s0.1-2.397-2.416-7.737c-3.414-7.235-3.405-7.394-3.152-10.259l5.212,9.26
		c0,0,9.388,16.907,12.615,17.849c3.218,0.939,4.27,10.739,4.27,10.739l3.526,8.639L314.044,177.479z"/>
	<path fill="#2F5931" d="M339.892,215.255c0,0-2.644-3.536-4.397-11.376c-1.76-7.84-4.888-10.446-6.021-16.045
		c-0.583-2.918-8.408-12.952-8.408-12.952s0.353-2.375-1.58-7.953c-2.622-7.559-2.597-7.715-2.038-10.536l4.195,9.762
		c0,0,7.534,17.815,10.64,19.091c3.102,1.283,3.096,11.136,3.096,11.136l2.587,8.967L339.892,215.255z"/>
</g>
<g id="milk_1_">
	<path opacity="0.7" fill="#FFFFFF" d="M345.875,348.02l-8.211-108.689h67.396L396.85,348.02c0,0-12.992,5.28-25.486,5.312
		C360.609,353.36,345.875,348.02,345.875,348.02z"/>
	<path fill="#8499A3" d="M404.872,238.691c0,1.869-15.047,4.878-33.604,4.878c-18.561,0-33.604-3.009-33.604-4.878
		c0-1.87,15.043-4.132,33.604-4.132C389.825,234.559,404.872,236.821,404.872,238.691z"/>
	<path fill="#FFFFFF" d="M340.276,268.091c0,0,8.274,17.618,23.205,11.413c14.928-6.198,19.78,2.906,25.005,1.898
		c5.225-1.008,8.35-1.152,13.505-4.813l-5.141,71.431c0,0-10.923,5.024-24.425,5.312c-11.11,0.234-26.55-5.312-26.55-5.312
		L340.276,268.091z"/>
</g>
<g id="mushroom_1_">
	<path fill="#FFFFCC" d="M315.661,106.519c1.794-9.481,22.212-39.527,53.357-15.442c4.881,3.779,12.122,14.906-11.249,20.963
		c0,0,0.971,5.609,7.322,14.369c3.552,4.897-23.723,13.127-23.139,6.651c0.559-6.154-3.199-15.942-3.199-15.942
		C342.061,116.285,310.926,131.484,315.661,106.519z"/>
	<path fill="#998675" d="M324.649,116.047c-0.387,1.264-2.849,2.244-3.249,0.98c-0.855-2.694-2.16-3.864,5.845-11.698
		c9.12-8.929,9.834,6.064,9.834,6.064S328.169,104.615,324.649,116.047z"/>
	<path fill="#998675" d="M368.412,102.839c1.03,0.84,3.617,0.293,3.255-0.98c-0.783-2.715-0.247-5.028-11.345-6.513
		c-12.4-1.661-4.229,10.312-4.229,10.312S359.155,95.262,368.412,102.839z"/>
</g>
<text transform="matrix(0 1 -1 0 417.3618 236.1436)" fill="#FFFFFF" font-family="'MenschRegular'" font-size="33.9301">NUTRIHAWK</text>
</svg>
